<svg version="1.1" id="Layer_1" xmlns="http://www.w3.org/2000/svg" xmlns:xlink="http://www.w3.org/1999/xlink" x="0px" y="0px"
	 width="720" height="110" viewBox="80 330 720 110" xml:space="preserve">
<path fill="none" opacity="0" stroke="none" 
	d=" 
M433.932953,374.466583 
	C433.617889,374.274750 433.302856,374.082916 433.005737,373.983093 
	C433.005737,373.983093 433.097473,373.963806 432.810577,373.325134 
	C431.216614,372.513641 429.622650,371.702148 428.015900,370.982483 
	C428.015900,370.982483 428.107971,370.993317 427.941162,370.447723 
	C427.612305,370.351898 427.283447,370.256073 426.333740,369.851746 
	C422.292206,366.908783 418.250671,363.965820 413.900970,360.356476 
	C413.559326,359.994141 413.267548,359.560944 412.868652,359.279877 
	C404.162781,353.144684 395.164734,347.381805 386.814026,340.797546 
	C379.531769,335.055725 371.929688,331.695007 362.543335,332.960083 
	C358.940002,333.445709 356.842834,336.131256 358.522644,338.944733 
	C361.418823,343.795624 364.489746,348.549500 367.655151,353.230652 
	C373.751617,362.246429 379.965240,371.182983 386.011261,380.814087 
	C385.337463,382.157562 384.663666,383.501007 383.314972,385.109131 
	C381.823029,387.037933 380.331085,388.966705 378.921478,390.952606 
	C378.921478,390.952606 378.887909,390.858215 378.238922,391.127991 
	C377.790466,392.410919 377.342041,393.693878 376.973755,394.976349 
	C376.973755,394.976349 376.970337,394.896271 376.254486,394.986572 
	C375.455841,395.974640 374.657196,396.962708 373.941925,397.957947 
	C373.941925,397.957947 373.943115,397.874237 373.276794,398.156128 
	C369.804779,402.742645 366.332733,407.329163 362.946594,411.966614 
	C362.946594,411.966614 362.900635,411.877991 362.264038,412.159637 
	C359.128693,416.423157 355.993317,420.686676 352.941010,424.955750 
	C352.941010,424.955750 352.940430,424.872589 352.256592,425.171417 
	C348.600952,427.968231 347.700897,432.163513 350.595154,432.685791 
	C353.914246,433.284668 358.055573,433.817596 360.782623,432.377472 
	C369.495789,427.775970 377.719391,422.247498 386.057251,417.078094 
	C386.057251,417.078094 386.075012,417.150726 386.808350,417.040894 
	C390.917267,414.384491 395.026184,411.728119 399.052521,409.073242 
	C399.052521,409.073242 399.061432,409.155365 399.788574,409.049500 
	C403.740112,406.388763 407.735748,403.790833 411.633698,401.053833 
	C419.162445,395.767426 426.636078,390.402557 434.043701,385.021942 
	C434.043701,385.021942 433.997925,385.112152 434.548828,384.949371 
	C434.741577,384.630432 434.934326,384.311462 435.015411,384.014526 
	C435.015411,384.014526 435.039154,384.125854 435.777557,384.017914 
	C439.201508,382.177979 440.827026,380.017334 437.019043,376.982544 
	C437.019043,376.982544 437.109314,377.009674 436.949341,376.455688 
	C436.634033,376.250275 436.318726,376.044861 436.021088,375.959259 
	C436.021088,375.959259 436.140289,375.937775 435.888397,375.321564 
	C435.251373,375.176453 434.614349,375.031372 433.979919,375.010132 
	C433.979919,375.010132 434.103790,375.009338 433.932953,374.466583 
M529.091187,333.912628 
	C529.091187,333.912628 529.167908,333.901520 528.741272,333.187195 
	C522.573364,332.848877 516.405457,332.510529 510.151794,332.167511 
	C510.151794,342.388184 510.151794,351.189697 509.971588,360.381378 
	C509.971588,360.381378 509.953979,360.810852 509.399475,361.035339 
	C509.584167,361.420227 509.768829,361.805115 509.970245,362.612061 
	C509.970245,362.612061 510.149597,362.994507 510.037689,363.929993 
	C510.073547,381.286835 510.109406,398.643677 509.965576,416.616272 
	C510.009766,417.038391 510.053955,417.460510 510.214264,418.744537 
	C515.227844,419.178406 520.236267,419.691803 525.256897,420.017548 
	C528.493591,420.227539 530.066650,418.515320 530.045227,415.263306 
	C529.976746,404.837585 529.936401,394.411743 530.212219,383.337341 
	C538.309692,371.514038 545.369629,375.358185 550.079102,384.970093 
	C550.079102,396.200531 550.079102,407.431000 550.079102,418.988892 
	C555.388611,418.988892 560.331665,418.886871 565.267822,419.028198 
	C568.099731,419.109283 569.051819,417.948944 569.031311,415.204651 
	C568.948120,404.089264 569.019348,392.972778 568.963684,381.857056 
	C568.960327,381.189270 568.348267,380.524567 568.020874,379.037781 
	C567.316589,371.112579 563.796326,363.935089 556.538940,361.474731 
	C547.131104,358.285370 536.908386,357.432892 529.025391,367.514954 
	C529.025391,365.147705 529.025391,363.672974 529.807678,361.750854 
	C529.884949,355.289551 530.064880,348.827087 529.992371,342.367462 
	C529.960449,339.520691 529.415466,336.679718 529.091187,333.912628 
M579.089783,371.980804 
	C579.089783,387.541687 579.089783,403.102600 579.089783,418.640564 
	C585.591919,418.640564 591.771118,418.640564 597.969116,418.640564 
	C597.969116,400.515625 597.989563,382.747192 597.926147,364.979065 
	C597.921570,363.708984 597.302673,362.441101 596.047546,361.022156 
	C590.392639,361.022156 584.737732,361.022156 579.220154,361.022156 
	C579.220154,364.849640 579.220154,367.954407 579.089783,371.980804 
M659.016235,376.944916 
	C659.013550,385.029083 658.966980,393.113739 659.051880,401.196991 
	C659.065857,402.524139 659.658020,403.845215 659.989258,405.598602 
	C659.989258,405.598602 660.161133,405.992310 660.035339,406.651398 
	C660.083374,407.093628 660.131348,407.535828 660.026611,408.700073 
	C662.199036,411.543610 663.789062,415.403778 666.651184,417.043243 
	C675.843262,422.308624 685.520142,420.999847 695.748047,416.861237 
	C696.175598,414.055908 696.995239,411.237366 696.901062,408.449707 
	C696.831360,406.388123 695.571777,404.366730 694.842285,402.327454 
	C692.523010,403.216492 690.203674,404.105530 687.080139,404.986115 
	C682.147888,405.538757 678.670410,402.650116 678.242493,398.535950 
	C677.443787,390.856842 678.013062,383.035461 678.013062,374.541260 
	C682.993042,375.046173 687.348938,375.681152 691.718201,375.793182 
	C692.793579,375.820770 694.768494,374.224396 694.860901,373.237122 
	C695.227356,369.320068 695.011597,365.348572 695.011597,360.970520 
	C689.203674,360.970520 683.793823,360.970520 677.981262,360.970520 
	C677.981262,354.797485 677.981262,349.049530 677.981262,342.308990 
	C672.337524,343.263763 667.213074,343.905487 662.230774,345.126801 
	C660.932678,345.445007 659.314331,347.488586 659.164856,348.881592 
	C658.746399,352.779907 659.019165,356.752441 659.019165,361.060791 
	C656.062317,361.060791 653.643860,361.060791 651.213135,361.060791 
	C651.213135,365.886292 651.213135,370.320099 651.213135,375.012390 
	C653.239502,375.012390 655.047241,375.012390 657.026184,375.582153 
	C657.370178,375.685791 657.714233,375.789459 658.441345,376.035767 
	C658.441345,376.035767 658.849976,376.022552 659.016235,376.944916 
M319.204956,360.034729 
	C318.138428,360.086212 317.071899,360.137695 315.130737,360.033539 
	C303.692291,358.355957 292.792847,368.364380 290.070496,380.020569 
	C288.860291,385.202240 289.337921,390.768677 288.942993,396.152649 
	C288.464935,402.669983 291.526825,408.422424 295.422943,412.517365 
	C302.857391,420.331177 313.432953,424.560303 325.356262,417.257660 
	C327.810852,415.754364 330.074280,413.939026 332.712982,412.063385 
	C333.082275,417.199493 335.355804,419.694214 340.520203,419.044769 
	C343.311096,418.693817 346.170197,418.885040 349.838776,418.600342 
	C349.900024,391.053284 349.967896,363.506256 349.979584,335.959167 
	C349.979828,335.349426 349.339661,334.739441 348.069519,334.010468 
	C343.905823,334.008179 339.731293,334.190155 335.581726,333.946625 
	C332.116333,333.743256 330.732697,334.912659 330.968109,338.473358 
	C331.447021,345.717560 331.778229,352.975555 331.966492,360.233154 
	C332.061127,363.881561 330.732758,365.148956 327.116699,362.828552 
	C325.034363,361.492310 322.387360,361.036041 319.204956,360.034729 
M613.196716,383.245422 
	C613.119080,394.374329 613.002625,405.503448 613.052063,416.631775 
	C613.055298,417.366180 614.324585,418.094971 615.932617,418.939514 
	C621.294556,418.672729 626.656433,418.405975 632.799316,417.706818 
	C632.913330,403.811371 633.027405,389.915924 633.899902,375.668518 
	C638.560608,375.310059 643.221313,374.951599 647.985046,374.585236 
	C647.985046,371.619232 647.749817,368.939697 648.038391,366.317841 
	C648.509521,362.038330 646.372742,360.842316 642.609985,360.965515 
	C639.494568,361.067535 636.373108,360.986328 633.297180,360.986328 
	C632.558777,351.382690 637.411743,346.051575 644.451965,348.229187 
	C652.632019,350.759277 653.008179,350.484589 652.988953,341.995361 
	C652.986694,340.998077 652.861938,339.983276 653.002258,339.006500 
	C653.643677,334.543640 651.091370,333.109406 647.284241,333.013245 
	C643.463928,332.916748 639.507019,333.643188 635.841125,332.887451 
	C625.086426,330.670410 614.956482,342.648346 613.972534,351.646545 
	C613.640564,354.682068 613.014343,357.685364 612.524902,360.689636 
	C604.016296,361.410706 602.755981,362.866455 604.047363,370.581848 
	C604.257751,371.838989 604.491394,373.206177 605.156738,374.236877 
	C605.679688,375.047028 606.882874,375.899811 607.787354,375.903534 
	C613.520081,375.927155 613.880798,376.247803 613.196716,383.245422 
M143.990158,397.600098 
	C145.373627,403.543365 146.682541,409.505981 148.213959,415.410858 
	C148.469299,416.395386 149.662186,417.831207 150.473221,417.866150 
	C156.417953,418.122375 162.376022,418.106750 168.329025,418.061890 
	C168.801956,418.058319 169.519699,417.269226 169.699493,416.709076 
	C171.842651,410.032166 174.074036,403.376068 175.944061,396.620911 
	C178.030365,389.084442 179.601746,381.405090 181.700485,373.872437 
	C184.480408,363.895050 187.559708,354.001160 190.496902,344.067413 
	C190.984802,342.417267 191.096207,340.572693 191.917374,339.121033 
	C193.816284,335.764282 193.100983,334.130981 189.185623,334.035095 
	C184.690445,333.925049 180.179718,334.187805 175.696945,333.925812 
	C172.588226,333.744110 171.587097,334.957794 170.900894,337.885071 
	C169.196686,345.155273 166.767502,352.255615 165.065918,359.526306 
	C163.419449,366.561462 162.372559,373.735413 160.919983,380.819183 
	C160.694550,381.918549 159.708420,382.861908 159.074066,383.877411 
	C158.382843,382.768829 157.247696,381.719269 157.090958,380.539673 
	C156.743057,377.921509 157.338669,375.132874 156.749802,372.599670 
	C154.245331,361.825958 151.231995,351.167816 148.857513,340.367859 
	C147.780670,335.470001 145.700867,333.225128 140.515152,333.941833 
	C137.573441,334.348450 134.421371,333.534271 131.569763,334.179321 
	C129.834991,334.571747 127.667992,336.427612 127.125183,338.092346 
	C125.388008,343.420197 124.206444,348.941376 123.016563,354.432617 
	C121.253738,362.568024 119.748001,370.759460 117.953018,378.887360 
	C117.469200,381.078156 116.335686,383.125488 115.105927,386.236603 
	C113.323921,378.350922 111.969681,372.055847 110.463562,365.797333 
	C109.421921,361.468903 108.016220,357.225220 107.052292,352.881714 
	C105.863953,347.527100 105.088638,342.079254 103.837654,336.741333 
	C103.587402,335.673523 102.029358,334.178711 101.026283,334.140442 
	C94.756256,333.901306 88.472595,334.019714 81.244537,334.019714 
	C82.110062,337.808014 82.729454,340.935089 83.547989,344.009125 
	C84.952484,349.283844 86.565979,354.503448 87.938316,359.786041 
	C90.031891,367.844910 91.945145,375.950531 94.026672,384.012665 
	C96.290352,392.780212 98.927307,401.461243 100.884621,410.294525 
	C102.131531,415.921753 105.061089,418.971558 110.836067,418.969666 
	C113.334816,418.968842 115.857872,418.749298 118.327225,419.019318 
	C123.405151,419.574524 125.407593,417.036743 126.032425,412.378906 
	C126.570221,408.369904 127.352974,404.367432 128.385712,400.456696 
	C130.464844,392.583588 132.741974,384.761353 135.044296,376.949615 
	C135.583847,375.118927 136.549164,373.413727 137.669418,370.846985 
	C140.015091,380.568054 141.965530,388.651154 143.990158,397.600098 
M463.595245,401.938477 
	C459.845764,400.666107 456.089142,399.414337 452.348907,398.115387 
	C448.836426,396.895508 446.122864,395.718842 444.182892,401.048065 
	C440.152557,412.119904 438.454132,414.664886 451.891022,417.770203 
	C461.511169,419.993469 471.805420,419.849945 481.784119,419.709564 
	C485.966370,419.650726 490.983765,417.876312 494.121063,415.153198 
	C507.975006,403.128448 509.401764,383.586304 492.499054,373.050140 
	C485.520416,368.700073 477.424622,366.177155 470.138763,362.261536 
	C468.196503,361.217712 466.641602,358.237946 466.200165,355.902893 
	C465.546906,352.447449 469.793640,348.753326 474.538971,349.120148 
	C479.934570,349.537292 485.356171,350.725281 490.545776,352.303802 
	C493.923126,353.331116 496.394836,353.399994 497.912506,350.032898 
	C498.893219,347.857147 499.310913,345.432312 500.044403,343.139374 
	C501.557953,338.407959 499.966675,335.458832 495.165466,335.016479 
	C486.210480,334.191498 477.238312,333.446960 468.256470,333.049133 
	C459.221924,332.648956 452.199951,337.549652 447.152771,344.082825 
	C438.780396,354.920135 445.845795,375.348969 458.798187,380.055847 
	C464.937378,382.286865 471.053467,384.597137 477.091339,387.086670 
	C482.472626,389.305511 484.866577,395.592957 481.560181,398.682037 
	C476.622192,403.295349 470.848785,404.397949 463.595245,401.938477 
M245.018250,394.253296 
	C244.695663,387.129639 245.708084,380.094086 241.206589,373.338593 
	C236.140289,365.735443 230.549850,360.159546 220.941040,359.990967 
	C219.647751,359.968292 218.327057,359.805145 217.073547,359.490173 
	C207.487915,357.081238 194.646851,362.916321 188.649094,371.480225 
	C183.844208,378.340881 184.106628,385.824463 183.985443,393.444519 
	C183.844666,402.297424 188.235428,408.858307 194.654663,414.308441 
	C200.724335,419.461853 208.020203,419.633331 215.622711,420.228149 
	C229.266953,421.295715 244.133423,410.012573 245.018250,394.253296 
M250.682251,367.247955 
	C250.682251,384.465332 250.682251,401.682709 250.682251,418.973175 
	C255.898300,418.973175 260.065582,418.841553 264.220703,419.009827 
	C268.472504,419.182068 270.325378,417.378479 270.029144,413.116791 
	C269.617859,407.200562 268.812164,401.245056 269.134644,395.358887 
	C269.736206,384.379730 272.345703,378.469635 284.962891,376.857147 
	C286.320343,376.683685 288.329132,374.940002 288.533386,373.681030 
	C289.108307,370.137177 289.152008,366.446198 288.868164,362.855652 
	C288.762482,361.518799 287.101044,359.175354 286.263885,359.225098 
	C282.963318,359.421051 279.301880,359.673218 276.541321,361.248566 
	C273.222748,363.142334 270.685272,366.404938 267.538910,369.326233 
	C267.965729,361.430542 267.544250,361.014099 259.656433,361.005066 
	C256.854706,361.001862 254.052994,361.004578 251.551682,361.004578 
	C250.971191,363.190155 250.517349,364.898926 250.682251,367.247955 
M585.777039,334.017792 
	C583.778076,335.232178 581.500122,336.151123 579.837219,337.721375 
	C576.167175,341.186859 575.844360,345.150543 578.979614,350.015076 
	C581.585266,354.057922 585.959473,354.569092 590.220337,353.824615 
	C596.214966,352.777252 598.781372,349.946716 598.971924,345.148956 
	C599.278625,337.426453 596.723450,335.126129 585.777039,334.017792 
z"/>
<path fill="#C9ADD8" opacity="1.000000" stroke="none" 
	d="
M143.953064,397.167175 
	C141.965530,388.651154 140.015091,380.568054 137.669418,370.846985 
	C136.549164,373.413727 135.583847,375.118927 135.044296,376.949615 
	C132.741974,384.761353 130.464844,392.583588 128.385712,400.456696 
	C127.352974,404.367432 126.570221,408.369904 126.032425,412.378906 
	C125.407593,417.036743 123.405151,419.574524 118.327225,419.019318 
	C115.857872,418.749298 113.334816,418.968842 110.836067,418.969666 
	C105.061089,418.971558 102.131531,415.921753 100.884621,410.294525 
	C98.927307,401.461243 96.290352,392.780212 94.026672,384.012665 
	C91.945145,375.950531 90.031891,367.844910 87.938316,359.786041 
	C86.565979,354.503448 84.952484,349.283844 83.547989,344.009125 
	C82.729454,340.935089 82.110062,337.808014 81.244537,334.019714 
	C88.472595,334.019714 94.756256,333.901306 101.026283,334.140442 
	C102.029358,334.178711 103.587402,335.673523 103.837654,336.741333 
	C105.088638,342.079254 105.863953,347.527100 107.052292,352.881714 
	C108.016220,357.225220 109.421921,361.468903 110.463562,365.797333 
	C111.969681,372.055847 113.323921,378.350922 115.105927,386.236603 
	C116.335686,383.125488 117.469200,381.078156 117.953018,378.887360 
	C119.748001,370.759460 121.253738,362.568024 123.016563,354.432617 
	C124.206444,348.941376 125.388008,343.420197 127.125183,338.092346 
	C127.667992,336.427612 129.834991,334.571747 131.569763,334.179321 
	C134.421371,333.534271 137.573441,334.348450 140.515152,333.941833 
	C145.700867,333.225128 147.780670,335.470001 148.857513,340.367859 
	C151.231995,351.167816 154.245331,361.825958 156.749802,372.599670 
	C157.338669,375.132874 156.743057,377.921509 157.090958,380.539673 
	C157.247696,381.719269 158.382843,382.768829 159.074066,383.877411 
	C159.708420,382.861908 160.694550,381.918549 160.919983,380.819183 
	C162.372559,373.735413 163.419449,366.561462 165.065918,359.526306 
	C166.767502,352.255615 169.196686,345.155273 170.900894,337.885071 
	C171.587097,334.957794 172.588226,333.744110 175.696945,333.925812 
	C180.179718,334.187805 184.690445,333.925049 189.185623,334.035095 
	C193.100983,334.130981 193.816284,335.764282 191.917374,339.121033 
	C191.096207,340.572693 190.984802,342.417267 190.496902,344.067413 
	C187.559708,354.001160 184.480408,363.895050 181.700485,373.872437 
	C179.601746,381.405090 178.030365,389.084442 175.944061,396.620911 
	C174.074036,403.376068 171.842651,410.032166 169.699493,416.709076 
	C169.519699,417.269226 168.801956,418.058319 168.329025,418.061890 
	C162.376022,418.106750 156.417953,418.122375 150.473221,417.866150 
	C149.662186,417.831207 148.469299,416.395386 148.213959,415.410858 
	C146.682541,409.505981 145.373627,403.543365 143.953064,397.167175 
z"/>
<path fill="#9FCFDA" opacity="1.000000" stroke="none" 
	d="
M464.036072,401.948395 
	C470.848785,404.397949 476.622192,403.295349 481.560181,398.682037 
	C484.866577,395.592957 482.472626,389.305511 477.091339,387.086670 
	C471.053467,384.597137 464.937378,382.286865 458.798187,380.055847 
	C445.845795,375.348969 438.780396,354.920135 447.152771,344.082825 
	C452.199951,337.549652 459.221924,332.648956 468.256470,333.049133 
	C477.238312,333.446960 486.210480,334.191498 495.165466,335.016479 
	C499.966675,335.458832 501.557953,338.407959 500.044403,343.139374 
	C499.310913,345.432312 498.893219,347.857147 497.912506,350.032898 
	C496.394836,353.399994 493.923126,353.331116 490.545776,352.303802 
	C485.356171,350.725281 479.934570,349.537292 474.538971,349.120148 
	C469.793640,348.753326 465.546906,352.447449 466.200165,355.902893 
	C466.641602,358.237946 468.196503,361.217712 470.138763,362.261536 
	C477.424622,366.177155 485.520416,368.700073 492.499054,373.050140 
	C509.401764,383.586304 507.975006,403.128448 494.121063,415.153198 
	C490.983765,417.876312 485.966370,419.650726 481.784119,419.709564 
	C471.805420,419.849945 461.511169,419.993469 451.891022,417.770203 
	C438.454132,414.664886 440.152557,412.119904 444.182892,401.048065 
	C446.122864,395.718842 448.836426,396.895508 452.348907,398.115387 
	C456.089142,399.414337 459.845764,400.666107 464.036072,401.948395 
z"/>
<path fill="#9ECEDB" opacity="1.000000" stroke="none" 
	d="
M510.098145,417.882629 
	C510.053955,417.460510 510.009766,417.038391 510.273376,415.957550 
	C510.669586,398.473480 510.765350,381.648193 510.816589,364.822723 
	C510.818451,364.213989 510.381866,363.603943 510.149597,362.994507 
	C510.149597,362.994507 509.970245,362.612061 509.993469,362.056030 
	C509.995819,361.270294 509.974884,361.040558 509.953979,360.810852 
	C509.953979,360.810852 509.971588,360.381378 510.270996,359.832153 
	C510.701050,352.324219 510.951263,345.364838 510.908752,338.407227 
	C510.889374,335.232117 511.973480,333.873962 515.233704,333.965881 
	C519.874146,334.096710 524.522766,333.937073 529.167908,333.901520 
	C529.167908,333.901520 529.091187,333.912628 529.006653,334.339844 
	C528.956543,343.910767 528.990967,353.054504 529.025391,362.198242 
	C529.025391,363.672974 529.025391,365.147705 529.025391,367.514954 
	C536.908386,357.432892 547.131104,358.285370 556.538940,361.474731 
	C563.796326,363.935089 567.316589,371.112579 567.998169,379.925964 
	C567.986023,390.970093 568.008667,401.126038 568.002625,411.282013 
	C567.998901,417.643616 567.643188,417.976929 561.172546,418.033142 
	C560.173645,418.041809 559.174683,418.038788 558.175720,418.038208 
	C550.897278,418.033783 550.977661,418.032288 550.865723,410.908508 
	C550.725037,401.953247 550.436096,393.000305 550.211182,384.046356 
	C545.369629,375.358185 538.309692,371.514038 529.789490,383.973206 
	C528.938599,394.200684 528.376282,403.789246 528.154724,413.385620 
	C528.076660,416.764679 527.069397,418.250397 523.547180,418.066925 
	C519.073120,417.833893 514.581970,417.929016 510.098145,417.882629 
z"/>
<path fill="#C9ADD8" opacity="1.000000" stroke="none" 
	d="
M245.027924,394.719116 
	C244.133423,410.012573 229.266953,421.295715 215.622711,420.228149 
	C208.020203,419.633331 200.724335,419.461853 194.654663,414.308441 
	C188.235428,408.858307 183.844666,402.297424 183.985443,393.444519 
	C184.106628,385.824463 183.844208,378.340881 188.649094,371.480225 
	C194.646851,362.916321 207.487915,357.081238 217.073547,359.490173 
	C218.327057,359.805145 219.647751,359.968292 220.941040,359.990967 
	C230.549850,360.159546 236.140289,365.735443 241.206589,373.338593 
	C245.708084,380.094086 244.695663,387.129639 245.027924,394.719116 
M222.568054,377.111084 
	C221.868042,376.735199 221.133835,376.411133 220.473343,375.975342 
	C214.645355,372.130219 205.511139,374.672577 204.251404,381.236816 
	C203.212921,386.648132 203.127579,392.623718 204.293472,397.985321 
	C205.950226,405.604218 216.292587,408.365570 221.365326,402.722107 
	C223.776382,400.039764 225.139008,395.981506 225.867371,392.325531 
	C226.869766,387.294189 226.055771,382.214081 222.568054,377.111084 
z"/>
<path fill="#9ECEDB" opacity="1.000000" stroke="none" 
	d="
M632.018372,418.139221 
	C626.656433,418.405975 621.294556,418.672729 615.315186,418.507935 
	C614.508118,416.110352 614.173767,414.145874 614.153381,412.178131 
	C614.052063,402.388214 614.033325,392.597412 613.985535,382.806946 
	C613.880798,376.247803 613.520081,375.927155 607.787354,375.903534 
	C606.882874,375.899811 605.679688,375.047028 605.156738,374.236877 
	C604.491394,373.206177 604.257751,371.838989 604.047363,370.581848 
	C602.755981,362.866455 604.016296,361.410706 612.524902,360.689636 
	C613.014343,357.685364 613.640564,354.682068 613.972534,351.646545 
	C614.956482,342.648346 625.086426,330.670410 635.841125,332.887451 
	C639.507019,333.643188 643.463928,332.916748 647.284241,333.013245 
	C651.091370,333.109406 653.643677,334.543640 653.002258,339.006500 
	C652.861938,339.983276 652.986694,340.998077 652.988953,341.995361 
	C653.008179,350.484589 652.632019,350.759277 644.451965,348.229187 
	C637.411743,346.051575 632.558777,351.382690 633.297180,360.986328 
	C636.373108,360.986328 639.494568,361.067535 642.609985,360.965515 
	C646.372742,360.842316 648.509521,362.038330 648.038391,366.317841 
	C647.749817,368.939697 647.985046,371.619232 647.985046,374.585236 
	C643.221313,374.951599 638.560608,375.310059 633.248413,376.158752 
	C632.397400,378.429596 632.031738,380.209625 632.025146,381.990936 
	C631.980469,394.040222 632.011658,406.089752 632.018372,418.139221 
z"/>
<path fill="#C9ABD7" opacity="1.000000" stroke="none" 
	d="
M348.998505,418.831665 
	C346.170197,418.885040 343.311096,418.693817 340.520203,419.044769 
	C335.355804,419.694214 333.082275,417.199493 332.712982,412.063385 
	C330.074280,413.939026 327.810852,415.754364 325.356262,417.257660 
	C313.432953,424.560303 302.857391,420.331177 295.422943,412.517365 
	C291.526825,408.422424 288.464935,402.669983 288.942993,396.152649 
	C289.337921,390.768677 288.860291,385.202240 290.070496,380.020569 
	C292.792847,368.364380 303.692291,358.355957 315.459045,360.420410 
	C314.969543,361.319489 314.077087,362.362457 313.345734,362.259613 
	C307.627075,361.455444 305.775665,366.131195 302.839478,369.381836 
	C303.875977,369.472412 304.728455,369.041016 305.607208,368.978363 
	C306.907104,368.885651 308.225647,369.054810 309.536255,369.112488 
	C308.855927,370.076477 308.241089,371.096863 307.474731,371.986786 
	C306.851807,372.710205 305.692169,373.158813 305.428589,373.948822 
	C305.191315,374.660095 305.650452,375.840027 306.196564,376.473480 
	C306.457062,376.775665 308.186401,376.483093 308.309387,376.131104 
	C310.012573,371.256653 314.423309,372.133118 318.091492,371.190582 
	C323.799072,369.724060 330.421875,372.339783 332.329956,377.751648 
	C333.684082,381.592224 334.426880,385.714630 334.910126,389.774658 
	C335.286377,392.935516 334.650757,396.204193 334.819580,399.406250 
	C334.968048,402.222137 335.483582,405.038940 336.076904,407.803833 
	C336.454346,409.562836 337.269867,411.227814 337.888947,412.934967 
	C338.527893,412.758331 339.166870,412.581665 339.805817,412.405029 
	C339.805817,411.001221 339.781738,409.596954 339.810608,408.193726 
	C339.881226,404.760681 339.634705,401.267365 340.229401,397.925262 
	C340.467773,396.585480 342.606049,395.607208 343.828461,394.412109 
	C344.915497,393.349365 346.437775,392.378723 346.861908,391.073090 
	C347.511688,389.072998 347.376984,386.819519 347.586395,384.674683 
	C348.981720,370.383087 347.825958,356.181580 345.661102,342.073151 
	C344.977234,337.616394 340.379456,338.901001 337.379974,338.361938 
	C336.895660,338.274933 335.136841,341.535767 335.125885,343.256409 
	C335.092163,348.553223 335.447571,353.871277 335.985992,359.146942 
	C336.400726,363.210846 334.625336,366.294006 330.978180,366.326599 
	C326.629944,366.365448 321.913910,365.312103 319.994537,360.183655 
	C322.387360,361.036041 325.034363,361.492310 327.116699,362.828552 
	C330.732758,365.148956 332.061127,363.881561 331.966492,360.233154 
	C331.778229,352.975555 331.447021,345.717560 330.968109,338.473358 
	C330.732697,334.912659 332.116333,333.743256 335.581726,333.946625 
	C339.731293,334.190155 343.905823,334.008179 348.533997,334.530426 
	C348.998474,362.977478 348.998474,390.904602 348.998505,418.831665 
M308.021088,387.187408 
	C308.353424,390.583649 308.327759,394.064117 309.102539,397.356232 
	C310.246552,402.217285 314.098907,404.816528 318.612518,405.914246 
	C323.043549,406.991852 325.945953,403.681976 328.483093,400.810822 
	C333.187683,395.486938 333.511169,388.719116 331.057922,382.807861 
	C327.039398,373.125000 320.522156,371.012878 312.571228,378.175598 
	C310.405457,380.126678 309.614563,383.603851 308.021088,387.187408 
z"/>
<path fill="#F3BE83" opacity="1.000000" stroke="none" 
	d="
M414.209137,361.022888 
	C418.250671,363.965820 422.292206,366.908783 426.805847,370.183655 
	C427.537323,370.704865 427.813995,370.864105 428.107971,370.993317 
	C428.107971,370.993317 428.015900,370.982483 428.093658,371.296997 
	C429.813416,372.395599 431.455444,373.179718 433.097473,373.963806 
	C433.097473,373.963806 433.005737,373.983093 433.156433,374.149048 
	C433.572662,374.546448 433.838226,374.777893 434.103790,375.009338 
	C434.103790,375.009338 433.979919,375.010132 434.192535,375.179504 
	C434.983521,375.545135 435.561920,375.741455 436.140289,375.937775 
	C436.140289,375.937775 436.021088,375.959259 436.161072,376.127075 
	C436.570496,376.533173 436.839905,376.771423 437.109314,377.009674 
	C437.109314,377.009674 437.019043,376.982544 437.018311,377.329163 
	C436.358124,379.825806 435.698608,381.975830 435.039124,384.125854 
	C435.039154,384.125854 435.015411,384.014526 434.848083,384.154236 
	C434.453156,384.566711 434.225555,384.839417 433.997925,385.112152 
	C433.997925,385.112152 434.043701,385.021942 433.709412,385.022491 
	C431.722870,385.727112 429.906952,386.188843 428.445831,387.175812 
	C420.770660,392.360168 413.120209,397.587219 405.606140,403.000610 
	C403.196960,404.736298 401.230499,407.086426 399.061462,409.155396 
	C399.061432,409.155365 399.052521,409.073242 398.698425,409.037537 
	C393.267578,410.232117 388.414459,411.799072 386.075012,417.150726 
	C386.075012,417.150726 386.057251,417.078094 385.697876,417.037415 
	C383.456879,417.573303 381.424744,417.867798 379.720886,418.777313 
	C373.741119,421.969299 367.863129,425.353149 361.968048,428.702118 
	C356.729279,431.678192 353.620758,430.377991 352.940430,424.872589 
	C352.940430,424.872589 352.941010,424.955750 353.249847,424.914612 
	C358.284821,421.700531 362.391266,418.082153 362.900635,411.877991 
	C362.900635,411.877991 362.946594,411.966614 363.268005,411.935608 
	C369.112518,408.756744 372.640625,404.136688 373.943115,397.874237 
	C373.943115,397.874237 373.941925,397.957947 374.246124,397.915466 
	C375.356995,396.880737 376.163696,395.888519 376.970337,394.896301 
	C376.970337,394.896271 376.973755,394.976349 377.285034,394.873077 
	C378.026855,393.465942 378.457397,392.162079 378.887939,390.858215 
	C378.887909,390.858215 378.921478,390.952606 379.263855,390.955139 
	C383.298431,390.519745 384.110016,388.016174 383.989868,384.844452 
	C384.663666,383.501007 385.337463,382.157562 386.414124,380.388275 
	C395.947723,373.649261 405.078430,367.336060 414.209137,361.022888 
z"/>
<path fill="#9ECEDB" opacity="1.000000" stroke="none" 
	d="
M695.022644,417.303772 
	C685.520142,420.999847 675.843262,422.308624 666.651184,417.043243 
	C663.789062,415.403778 662.199036,411.543610 660.261719,408.168091 
	C660.384949,407.088196 660.273071,406.540253 660.161133,405.992310 
	C660.161133,405.992310 659.989258,405.598602 660.014160,404.903992 
	C659.998657,397.716675 660.059509,391.221069 659.871765,384.732635 
	C659.787598,381.821838 659.205933,378.925476 658.849976,376.022552 
	C658.849976,376.022552 658.441345,376.035767 658.115234,375.743073 
	C657.477722,375.304382 657.166321,375.158386 656.854980,375.012390 
	C655.047241,375.012390 653.239502,375.012390 651.213135,375.012390 
	C651.213135,370.320099 651.213135,365.886292 651.213135,361.060791 
	C653.643860,361.060791 656.062317,361.060791 659.019165,361.060791 
	C659.019165,356.752441 658.746399,352.779907 659.164856,348.881592 
	C659.314331,347.488586 660.932678,345.445007 662.230774,345.126801 
	C667.213074,343.905487 672.337524,343.263763 677.981262,342.308990 
	C677.981262,349.049530 677.981262,354.797485 677.981262,360.970520 
	C683.793823,360.970520 689.203674,360.970520 695.011597,360.970520 
	C695.011597,365.348572 695.227356,369.320068 694.860901,373.237122 
	C694.768494,374.224396 692.793579,375.820770 691.718201,375.793182 
	C687.348938,375.681152 682.993042,375.046173 678.013062,374.541260 
	C678.013062,383.035461 677.443787,390.856842 678.242493,398.535950 
	C678.670410,402.650116 682.147888,405.538757 687.889526,404.970215 
	C694.971680,403.563019 694.974915,403.562988 695.010559,409.949066 
	C695.024231,412.400574 695.019165,414.852203 695.022644,417.303772 
z"/>
<path fill="#C9ABD7" opacity="1.000000" stroke="none" 
	d="
M250.372894,366.927826 
	C250.517349,364.898926 250.971191,363.190155 251.551682,361.004578 
	C254.052994,361.004578 256.854706,361.001862 259.656433,361.005066 
	C267.544250,361.014099 267.965729,361.430542 267.538910,369.326233 
	C270.685272,366.404938 273.222748,363.142334 276.541321,361.248566 
	C279.301880,359.673218 282.963318,359.421051 286.263885,359.225098 
	C287.101044,359.175354 288.762482,361.518799 288.868164,362.855652 
	C289.152008,366.446198 289.108307,370.137177 288.533386,373.681030 
	C288.329132,374.940002 286.320343,376.683685 284.962891,376.857147 
	C272.345703,378.469635 269.736206,384.379730 269.134644,395.358887 
	C268.812164,401.245056 269.617859,407.200562 270.029144,413.116791 
	C270.325378,417.378479 268.472504,419.182068 264.220703,419.009827 
	C260.065582,418.841553 255.898300,418.973175 250.682251,418.973175 
	C250.682251,401.682709 250.682251,384.465332 250.372894,366.927826 
z"/>
<path fill="#9CD3AE" opacity="1.000000" stroke="none" 
	d="
M414.055054,360.689667 
	C405.078430,367.336060 395.947723,373.649261 386.473663,380.057434 
	C379.965240,371.182983 373.751617,362.246429 367.655151,353.230652 
	C364.489746,348.549500 361.418823,343.795624 358.522644,338.944733 
	C356.842834,336.131256 358.940002,333.445709 362.543335,332.960083 
	C371.929688,331.695007 379.531769,335.055725 386.814026,340.797546 
	C395.164734,347.381805 404.162781,353.144684 412.868652,359.279877 
	C413.267548,359.560944 413.559326,359.994141 414.055054,360.689667 
z"/>
<path fill="#CBABDB" opacity="1.000000" stroke="none" 
	d="
M319.599731,360.109192 
	C321.913910,365.312103 326.629944,366.365448 330.978180,366.326599 
	C334.625336,366.294006 336.400726,363.210846 335.985992,359.146942 
	C335.447571,353.871277 335.092163,348.553223 335.125885,343.256409 
	C335.136841,341.535767 336.895660,338.274933 337.379974,338.361938 
	C340.379456,338.901001 344.977234,337.616394 345.661102,342.073151 
	C347.825958,356.181580 348.981720,370.383087 347.586395,384.674683 
	C347.376984,386.819519 347.511688,389.072998 346.861908,391.073090 
	C346.437775,392.378723 344.915497,393.349365 343.828461,394.412109 
	C342.606049,395.607208 340.467773,396.585480 340.229401,397.925262 
	C339.634705,401.267365 339.881226,404.760681 339.810608,408.193726 
	C339.781738,409.596954 339.805817,411.001221 339.805817,412.405029 
	C339.166870,412.581665 338.527893,412.758331 337.888947,412.934967 
	C337.269867,411.227814 336.454346,409.562836 336.076904,407.803833 
	C335.483582,405.038940 334.968048,402.222137 334.819580,399.406250 
	C334.650757,396.204193 335.286377,392.935516 334.910126,389.774658 
	C334.426880,385.714630 333.684082,381.592224 332.329956,377.751648 
	C330.421875,372.339783 323.799072,369.724060 318.091492,371.190582 
	C314.423309,372.133118 310.012573,371.256653 308.309387,376.131104 
	C308.186401,376.483093 306.457062,376.775665 306.196564,376.473480 
	C305.650452,375.840027 305.191315,374.660095 305.428589,373.948822 
	C305.692169,373.158813 306.851807,372.710205 307.474731,371.986786 
	C308.241089,371.096863 308.855927,370.076477 309.536255,369.112488 
	C308.225647,369.054810 306.907104,368.885651 305.607208,368.978363 
	C304.728455,369.041016 303.875977,369.472412 302.839478,369.381836 
	C305.775665,366.131195 307.627075,361.455444 313.345734,362.259613 
	C314.077087,362.362457 314.969543,361.319489 315.896362,360.498230 
	C317.071899,360.137695 318.138428,360.086212 319.599731,360.109192 
z"/>
<path fill="#9ECEDB" opacity="1.000000" stroke="none" 
	d="
M579.220154,371.059204 
	C579.220154,367.954407 579.220154,364.849640 579.220154,361.022156 
	C584.737732,361.022156 590.392639,361.022156 596.525452,361.554443 
	C597.024048,376.893799 597.115845,391.701202 597.043884,406.507812 
	C596.980896,419.475037 598.833313,417.804626 585.197632,418.070435 
	C580.912109,418.153961 579.767761,416.328491 579.836182,412.385925 
	C580.003540,402.739288 579.934570,393.086823 579.834412,383.438049 
	C579.791565,379.310059 579.434509,375.185394 579.220154,371.059204 
z"/>
<path fill="#9FCFDA" opacity="1.000000" stroke="none" 
	d="
M586.196777,334.021881 
	C596.723450,335.126129 599.278625,337.426453 598.971924,345.148956 
	C598.781372,349.946716 596.214966,352.777252 590.220337,353.824615 
	C585.959473,354.569092 581.585266,354.057922 578.979614,350.015076 
	C575.844360,345.150543 576.167175,341.186859 579.837219,337.721375 
	C581.500122,336.151123 583.778076,335.232178 586.196777,334.021881 
z"/>
<path fill="#D4EEF2" opacity="1.000000" stroke="none" 
	d="
M579.154968,371.520020 
	C579.434509,375.185394 579.791565,379.310059 579.834412,383.438049 
	C579.934570,393.086823 580.003540,402.739288 579.836182,412.385925 
	C579.767761,416.328491 580.912109,418.153961 585.197632,418.070435 
	C598.833313,417.804626 596.980896,419.475037 597.043884,406.507812 
	C597.115845,391.701202 597.024048,376.893799 596.986389,361.629486 
	C597.302673,362.441101 597.921570,363.708984 597.926147,364.979065 
	C597.989563,382.747192 597.969116,400.515625 597.969116,418.640564 
	C591.771118,418.640564 585.591919,418.640564 579.089783,418.640564 
	C579.089783,403.102600 579.089783,387.541687 579.154968,371.520020 
z"/>
<path fill="#EDCFAD" opacity="1.000000" stroke="none" 
	d="
M352.598511,425.022003 
	C353.620758,430.377991 356.729279,431.678192 361.968048,428.702118 
	C367.863129,425.353149 373.741119,421.969299 379.720886,418.777313 
	C381.424744,417.867798 383.456879,417.573303 385.735260,417.036835 
	C377.719391,422.247498 369.495789,427.775970 360.782623,432.377472 
	C358.055573,433.817596 353.914246,433.284668 350.595154,432.685791 
	C347.700897,432.163513 348.600952,427.968231 352.598511,425.022003 
z"/>
<path fill="#D4EEF2" opacity="1.000000" stroke="none" 
	d="
M550.145142,384.508240 
	C550.436096,393.000305 550.725037,401.953247 550.865723,410.908508 
	C550.977661,418.032288 550.897278,418.033783 558.175720,418.038208 
	C559.174683,418.038788 560.173645,418.041809 561.172546,418.033142 
	C567.643188,417.976929 567.998901,417.643616 568.002625,411.282013 
	C568.008667,401.126038 567.986023,390.970093 567.997437,380.336273 
	C568.348267,380.524567 568.960327,381.189270 568.963684,381.857056 
	C569.019348,392.972778 568.948120,404.089264 569.031311,415.204651 
	C569.051819,417.948944 568.099731,419.109283 565.267822,419.028198 
	C560.331665,418.886871 555.388611,418.988892 550.079102,418.988892 
	C550.079102,407.431000 550.079102,396.200531 550.145142,384.508240 
z"/>
<path fill="#D4EEF2" opacity="1.000000" stroke="none" 
	d="
M510.156189,418.313599 
	C514.581970,417.929016 519.073120,417.833893 523.547180,418.066925 
	C527.069397,418.250397 528.076660,416.764679 528.154724,413.385620 
	C528.376282,403.789246 528.938599,394.200684 529.625977,384.297485 
	C529.936401,394.411743 529.976746,404.837585 530.045227,415.263306 
	C530.066650,418.515320 528.493591,420.227539 525.256897,420.017548 
	C520.236267,419.691803 515.227844,419.178406 510.156189,418.313599 
z"/>
<path fill="#EDCFAD" opacity="1.000000" stroke="none" 
	d="
M399.425018,409.102448 
	C401.230499,407.086426 403.196960,404.736298 405.606140,403.000610 
	C413.120209,397.587219 420.770660,392.360168 428.445831,387.175812 
	C429.906952,386.188843 431.722870,385.727112 433.753815,385.046631 
	C426.636078,390.402557 419.162445,395.767426 411.633698,401.053833 
	C407.735748,403.790833 403.740112,406.388763 399.425018,409.102448 
z"/>
<path fill="#C9ADD8" opacity="1.000000" stroke="none" 
	d="
M349.418640,418.716003 
	C348.998474,390.904602 348.998474,362.977478 348.998352,334.589966 
	C349.339661,334.739441 349.979828,335.349426 349.979584,335.959167 
	C349.967896,363.506256 349.900024,391.053284 349.418640,418.716003 
z"/>
<path fill="#D4EEF2" opacity="1.000000" stroke="none" 
	d="
M528.954590,333.544373 
	C524.522766,333.937073 519.874146,334.096710 515.233704,333.965881 
	C511.973480,333.873962 510.889374,335.232117 510.908752,338.407227 
	C510.951263,345.364838 510.701050,352.324219 510.361084,359.637024 
	C510.151794,351.189697 510.151794,342.388184 510.151794,332.167511 
	C516.405457,332.510529 522.573364,332.848877 528.954590,333.544373 
z"/>
<path fill="#D4EEF2" opacity="1.000000" stroke="none" 
	d="
M510.093658,363.462250 
	C510.381866,363.603943 510.818451,364.213989 510.816589,364.822723 
	C510.765350,381.648193 510.669586,398.473480 510.363220,415.649658 
	C510.109406,398.643677 510.073547,381.286835 510.093658,363.462250 
z"/>
<path fill="#D4EEF2" opacity="1.000000" stroke="none" 
	d="
M632.408813,417.923035 
	C632.011658,406.089752 631.980469,394.040222 632.025146,381.990936 
	C632.031738,380.209625 632.397400,378.429596 632.869263,376.334717 
	C633.027405,389.915924 632.913330,403.811371 632.408813,417.923035 
z"/>
<path fill="#EDCFAD" opacity="1.000000" stroke="none" 
	d="
M373.609955,398.015198 
	C372.640625,404.136688 369.112518,408.756744 363.225098,411.910156 
	C366.332733,407.329163 369.804779,402.742645 373.609955,398.015198 
z"/>
<path fill="#D4EEF2" opacity="1.000000" stroke="none" 
	d="
M695.385376,417.082520 
	C695.019165,414.852203 695.024231,412.400574 695.010559,409.949066 
	C694.974915,403.562988 694.971680,403.563019 688.291687,404.974426 
	C690.203674,404.105530 692.523010,403.216492 694.842285,402.327454 
	C695.571777,404.366730 696.831360,406.388123 696.901062,408.449707 
	C696.995239,411.237366 696.175598,414.055908 695.385376,417.082520 
z"/>
<path fill="#D4EEF2" opacity="1.000000" stroke="none" 
	d="
M613.591125,383.026184 
	C614.033325,392.597412 614.052063,402.388214 614.153381,412.178131 
	C614.173767,414.145874 614.508118,416.110352 614.851318,418.451355 
	C614.324585,418.094971 613.055298,417.366180 613.052063,416.631775 
	C613.002625,405.503448 613.119080,394.374329 613.591125,383.026184 
z"/>
<path fill="#EDCFAD" opacity="1.000000" stroke="none" 
	d="
M362.582336,412.018799 
	C362.391266,418.082153 358.284821,421.700531 353.208313,424.911804 
	C355.993317,420.686676 359.128693,416.423157 362.582336,412.018799 
z"/>
<path fill="#D4EEF2" opacity="1.000000" stroke="none" 
	d="
M529.416504,361.974548 
	C528.990967,353.054504 528.956543,343.910767 529.012817,334.301575 
	C529.415466,336.679718 529.960449,339.520691 529.992371,342.367462 
	C530.064880,348.827087 529.884949,355.289551 529.416504,361.974548 
z"/>
<path fill="#EDCFAD" opacity="1.000000" stroke="none" 
	d="
M386.441681,417.095825 
	C388.414459,411.799072 393.267578,410.232117 398.739685,409.036774 
	C395.026184,411.728119 390.917267,414.384491 386.441681,417.095825 
z"/>
<path fill="#D4EEF2" opacity="1.000000" stroke="none" 
	d="
M658.933105,376.483734 
	C659.205933,378.925476 659.787598,381.821838 659.871765,384.732635 
	C660.059509,391.221069 659.998657,397.716675 660.011047,404.689240 
	C659.658020,403.845215 659.065857,402.524139 659.051880,401.196991 
	C658.966980,393.113739 659.013550,385.029083 658.933105,376.483734 
z"/>
<path fill="#EDCFAD" opacity="1.000000" stroke="none" 
	d="
M435.408325,384.071899 
	C435.698608,381.975830 436.358124,379.825806 437.032898,377.284363 
	C440.827026,380.017334 439.201508,382.177979 435.408325,384.071899 
z"/>
<path fill="#EDCFAD" opacity="1.000000" stroke="none" 
	d="
M383.652405,384.976807 
	C384.110016,388.016174 383.298431,390.519745 379.222656,390.926575 
	C380.331085,388.966705 381.823029,387.037933 383.652405,384.976807 
z"/>
<path fill="#EDCFAD" opacity="1.000000" stroke="none" 
	d="
M432.954041,373.644470 
	C431.455444,373.179718 429.813416,372.395599 428.100037,371.251068 
	C429.622650,371.702148 431.216614,372.513641 432.954041,373.644470 
z"/>
<path fill="#EDCFAD" opacity="1.000000" stroke="none" 
	d="
M376.612427,394.941437 
	C376.163696,395.888519 375.356995,396.880737 374.204437,397.911865 
	C374.657196,396.962708 375.455841,395.974640 376.612427,394.941437 
z"/>
<path fill="#EDCFAD" opacity="1.000000" stroke="none" 
	d="
M378.563416,390.993103 
	C378.457397,392.162079 378.026855,393.465942 377.244995,394.873322 
	C377.342041,393.693878 377.790466,392.410919 378.563416,390.993103 
z"/>
<path fill="#EDCFAD" opacity="1.000000" stroke="none" 
	d="
M436.014343,375.629669 
	C435.561920,375.741455 434.983521,375.545135 434.191223,375.117554 
	C434.614349,375.031372 435.251373,375.176453 436.014343,375.629669 
z"/>
<path fill="#D4EEF2" opacity="1.000000" stroke="none" 
	d="
M660.098267,406.321838 
	C660.273071,406.540253 660.384949,407.088196 660.338135,407.807098 
	C660.131348,407.535828 660.083374,407.093628 660.098267,406.321838 
z"/>
<path fill="#EDCFAD" opacity="1.000000" stroke="none" 
	d="
M434.018372,374.737976 
	C433.838226,374.777893 433.572662,374.546448 433.147461,374.103027 
	C433.302856,374.082916 433.617889,374.274750 434.018372,374.737976 
z"/>
<path fill="#D4EEF2" opacity="1.000000" stroke="none" 
	d="
M656.940552,375.297272 
	C657.166321,375.158386 657.477722,375.304382 657.923645,375.671753 
	C657.714233,375.789459 657.370178,375.685791 656.940552,375.297272 
z"/>
<path fill="#D4EEF2" opacity="1.000000" stroke="none" 
	d="
M509.676727,360.923096 
	C509.974884,361.040558 509.995819,361.270294 509.985107,361.845001 
	C509.768829,361.805115 509.584167,361.420227 509.676727,360.923096 
z"/>
<path fill="#EDCFAD" opacity="1.000000" stroke="none" 
	d="
M434.273376,385.030762 
	C434.225555,384.839417 434.453156,384.566711 434.903931,384.143250 
	C434.934326,384.311462 434.741577,384.630432 434.273376,385.030762 
z"/>
<path fill="#EDCFAD" opacity="1.000000" stroke="none" 
	d="
M428.024567,370.720520 
	C427.813995,370.864105 427.537323,370.704865 427.116272,370.337891 
	C427.283447,370.256073 427.612305,370.351898 428.024567,370.720520 
z"/>
<path fill="#EDCFAD" opacity="1.000000" stroke="none" 
	d="
M437.029327,376.732666 
	C436.839905,376.771423 436.570496,376.533173 436.152222,376.067200 
	C436.318726,376.044861 436.634033,376.250275 437.029327,376.732666 
z"/>
<path fill="none" opacity="0" stroke="none" 
	d="
M222.764648,377.454041 
	C226.055771,382.214081 226.869766,387.294189 225.867371,392.325531 
	C225.139008,395.981506 223.776382,400.039764 221.365326,402.722107 
	C216.292587,408.365570 205.950226,405.604218 204.293472,397.985321 
	C203.127579,392.623718 203.212921,386.648132 204.251404,381.236816 
	C205.511139,374.672577 214.645355,372.130219 220.473343,375.975342 
	C221.133835,376.411133 221.868042,376.735199 222.764648,377.454041 
z"/>
<path fill="none" opacity="0" stroke="none" 
	d="
M308.106873,386.784027 
	C309.614563,383.603851 310.405457,380.126678 312.571228,378.175598 
	C320.522156,371.012878 327.039398,373.125000 331.057922,382.807861 
	C333.511169,388.719116 333.187683,395.486938 328.483093,400.810822 
	C325.945953,403.681976 323.043549,406.991852 318.612518,405.914246 
	C314.098907,404.816528 310.246552,402.217285 309.102539,397.356232 
	C308.327759,394.064117 308.353424,390.583649 308.106873,386.784027 
z"/>
</svg>